<?xml version="1.0" encoding="utf-8"?>
<!-- Generator: Adobe Illustrator 20.0.0, SVG Export Plug-In . SVG Version: 6.00 Build 0)  -->
<svg version="1.1" id="_x31_5sec_x5F_Logo" xmlns="http://www.w3.org/2000/svg" xmlns:xlink="http://www.w3.org/1999/xlink" x="0px"
	 y="0px" viewBox="0 0 724 936.9" style="enable-background:new 0 0 724 936.9;" xml:space="preserve">
<style type="text/css">
	.st0{opacity:0.5;}
	.st1{fill:#61596D;}
	.st2{opacity:0.3;}
	.st3{fill:#AAAAAB;}
	.st4{fill:#FFD39A;}
	.st5{fill:#FEF383;}
	.st6{fill:#FFE1B2;}
	.st7{opacity:0.8;fill:#BFBFBF;}
	.st8{fill:url(#SVGID_1_);}
	.st9{fill:#F3818B;}
	.st10{fill:#FEDD10;}
	.st11{opacity:0.3;fill:#BFBFBF;}
	.st12{fill:#FFFFFF;}
	.st13{fill:#FAAF42;}
	.st14{opacity:0.2;fill:#BFBFBF;}
	.st15{opacity:0.4;}
	.st16{opacity:5.000000e-02;fill:#61596D;}
	.st17{opacity:0.6;}
	.st18{fill:url(#SVGID_2_);}
	.st19{opacity:0.3;fill:#61596D;}
	.st20{fill:url(#SVGID_3_);}
	.st21{fill:url(#SVGID_4_);}
	.st22{fill:url(#SVGID_5_);}
	.st23{fill:url(#SVGID_6_);}
	.st24{fill:url(#SVGID_7_);}
	.st25{fill:url(#SVGID_8_);}
	.st26{fill:url(#SVGID_9_);}
	.st27{fill:#F3C381;}
	.st28{fill:url(#SVGID_10_);}
	.st29{enable-background:new    ;}
	.st30{clip-path:url(#SVGID_12_);fill:#F79334;}
	.st31{clip-path:url(#SVGID_12_);fill:#F79333;}
	.st32{clip-path:url(#SVGID_12_);fill:#F79233;}
	.st33{clip-path:url(#SVGID_12_);fill:#F69132;}
	.st34{clip-path:url(#SVGID_12_);fill:#F69032;}
	.st35{clip-path:url(#SVGID_12_);fill:#F68F31;}
	.st36{clip-path:url(#SVGID_12_);fill:#F58E31;}
	.st37{clip-path:url(#SVGID_12_);fill:#F58D30;}
	.st38{clip-path:url(#SVGID_12_);fill:#F58C2F;}
	.st39{clip-path:url(#SVGID_12_);fill:#F48B2F;}
	.st40{clip-path:url(#SVGID_12_);fill:#F48A2F;}
	.st41{clip-path:url(#SVGID_12_);fill:#F48A2E;}
	.st42{clip-path:url(#SVGID_12_);fill:#F3892E;}
	.st43{clip-path:url(#SVGID_12_);fill:#F3882D;}
	.st44{clip-path:url(#SVGID_12_);fill:#F3872D;}
	.st45{clip-path:url(#SVGID_12_);fill:#F2862C;}
	.st46{clip-path:url(#SVGID_12_);fill:#F2852C;}
	.st47{clip-path:url(#SVGID_12_);fill:#F2842B;}
	.st48{clip-path:url(#SVGID_12_);fill:#F1832B;}
	.st49{clip-path:url(#SVGID_12_);fill:#F1822A;}
	.st50{clip-path:url(#SVGID_12_);fill:#F1812A;}
	.st51{clip-path:url(#SVGID_12_);fill:#F18029;}
	.st52{clip-path:url(#SVGID_12_);fill:#F07F29;}
	.st53{clip-path:url(#SVGID_12_);fill:#F07F28;}
	.st54{clip-path:url(#SVGID_12_);fill:#F07E28;}
	.st55{clip-path:url(#SVGID_12_);fill:#F07D28;}
	.st56{clip-path:url(#SVGID_12_);fill:#EF7C27;}
	.st57{clip-path:url(#SVGID_12_);fill:#EF7B27;}
	.st58{clip-path:url(#SVGID_12_);fill:#EF7A27;}
	.st59{clip-path:url(#SVGID_12_);fill:#EF7926;}
	.st60{clip-path:url(#SVGID_12_);fill:#EE7926;}
	.st61{clip-path:url(#SVGID_12_);fill:#EE7826;}
	.st62{clip-path:url(#SVGID_12_);fill:#EE7725;}
	.st63{clip-path:url(#SVGID_12_);fill:#EE7625;}
	.st64{clip-path:url(#SVGID_12_);fill:#ED7525;}
	.st65{clip-path:url(#SVGID_12_);fill:#ED7425;}
	.st66{clip-path:url(#SVGID_12_);fill:#ED7324;}
	.st67{clip-path:url(#SVGID_12_);fill:#ED7224;}
	.st68{clip-path:url(#SVGID_12_);fill:#EC7124;}
	.st69{clip-path:url(#SVGID_12_);fill:#EC7024;}
	.st70{clip-path:url(#SVGID_12_);fill:#EC6F23;}
	.st71{opacity:0.8;}
	.st72{fill:#BFBFBF;}
	.st73{fill:#B7B7B7;}
</style>
<g id="The_x5F_Logo">
	<g id="icon">
		<g id="DOWN">
			<g class="st0">
				<path class="st1" d="M432,517.7c0,0,0-0.1,0-0.1c0,0.1,0,0.1,0,0.2C431.9,517.8,432,517.8,432,517.7z"/>
				<path class="st1" d="M432,517.4c0,0,0-0.1,0-0.1C432,517.4,432,517.4,432,517.4C432,517.5,432,517.5,432,517.4z"/>
				<path class="st1" d="M431.9,518C431.9,518,431.9,518,431.9,518c0,0,0,0.1,0,0.2C431.9,518.1,431.9,518.1,431.9,518z"/>
				<path class="st1" d="M431.7,518.9c0-0.1,0-0.2,0.1-0.3c0,0,0,0,0,0C431.8,518.7,431.8,518.8,431.7,518.9
					C431.7,518.9,431.7,518.9,431.7,518.9z"/>
				<path class="st1" d="M431.9,518.3C431.9,518.3,431.9,518.3,431.9,518.3c0,0,0,0.1,0,0.2C431.8,518.5,431.8,518.4,431.9,518.3z"
					/>
				<path class="st1" d="M431.7,519.2c0-0.1,0-0.1,0-0.2C431.7,519.1,431.7,519.2,431.7,519.2C431.7,519.3,431.7,519.3,431.7,519.2z
					"/>
				<path class="st1" d="M432.1,516.6L432.1,516.6c0,0.1,0,0.1,0,0.2C432.1,516.7,432.1,516.6,432.1,516.6z"/>
				<path class="st1" d="M431.6,519.4c0,0,0,0.1,0,0.1l0,0C431.6,519.5,431.6,519.4,431.6,519.4z"/>
				<path class="st1" d="M432.4,515.2C432.4,515.2,432.4,515.1,432.4,515.2c0-0.1,0-0.2,0-0.3l0,0
					C432.4,515,432.4,515.1,432.4,515.2z"/>
				<path class="st1" d="M432.1,517.1c0-0.1,0-0.1,0-0.2C432.1,517,432.1,517.1,432.1,517.1C432.1,517.2,432.1,517.1,432.1,517.1z"
					/>
				<path class="st1" d="M432.2,516C432.2,516,432.2,515.9,432.2,516c0,0,0,0.1,0,0.1C432.2,516.1,432.2,516,432.2,516z"/>
				<path class="st1" d="M432.2,516.3C432.2,516.3,432.2,516.2,432.2,516.3c0,0,0,0.1,0,0.2C432.2,516.4,432.2,516.3,432.2,516.3z"
					/>
				<path class="st1" d="M516.7,352.5c-49-33.9-111.3,6.4-174.3,49.9c-2.3,1.6-4.7,3.2-7,4.7c-18.5-14.6-39.4-12.5-54.3,6
					c-3.5,4.3-7,8.5-10.1,12.8c-11.4-3-21.9-11-31-25.9c4.4,18.2,12.4,35,23.2,49.7c1.2,7.6,6.5,15.7,18.5,24.9
					c1.5,1.2,3,2.3,4.6,3.2c16.3,11.2,47.8,25.8,83.8,29.6c13.8,1.5,24.3,2.6,33.7,1.4l1.1,0.7c-3.2,0.2-6.1,0.5-8.1,1
					c-39,8.7-87.9,4.2-90.4-5.3l0.5,3.2c1.5,7,1.5,7.2,2.8,10.9c2.6,6.6,2.6,6.7,4.5,10.1l0.8,1.4c7.7,9.8,83.9,13.9,116.6-10.3
					c0-0.1,0.1-0.2,0.1-0.4c0-0.1,0.1-0.2,0.1-0.4c0,0,0-0.1,0-0.1l0.8-4.7l0,0h0c0.1-0.4,0.1-0.9,0.2-1.3c0-0.4,0.1-0.9,0.1-1.3
					c0-0.1,0-0.1,0-0.2c0,0,0,0,0,0c0-0.4,0.1-0.8,0.1-1.2c0-0.4,0.1-0.8,0.1-1.3c0-0.4,0-0.8,0.1-1.2c0-0.4,0-1.6-0.2-7.8
					c-0.1-2.6-0.5-6-0.6-6.3c-0.7-6.7-9.2-6.7-40.7-7.5c-3.5-0.1-21.8-0.7-39.8-3.5c-1.7-0.3-4.3-0.9-7.5-1.9
					c51-9.9,104.8-58,148.1-41.4c3.5-4.8,6.8-8.5,9.3-12.5c11.7-18.5,15.1-29.8,15.8-57.6C517.5,364.1,517.3,358.2,516.7,352.5z"/>
			</g>
			<g class="st2">
				<path class="st3" d="M247.3,421c13.8-13.3,38.7-21.3,54.6-17.9c27,5.7,44.9,25,67.6,39.2c2,1.2,3.9,2.5,5.8,3.7
					c4.5,1.3,8.9,2.8,13.2,4.7c12.4,5.5,22.3,13.8,36.2,15.8c25.1,3.7,54.4-21.5,69.1-32.1c11.5-14.8,14.3-13.3,19.2-31.9
					c-26.9,42.5-64.7,27.7-102.5,0.6c-62.2-44.6-123.8-85.9-173.4-52.8c-0.7,5.8-1.2,11.6-1,17.6C236.7,387.8,239.7,401.8,247.3,421
					z"/>
			</g>
		</g>
		<g id="MAIN">
			
				<ellipse transform="matrix(1 -7.725964e-03 7.725964e-03 1 -2.2263 2.8401)" class="st4" cx="366.5" cy="289.6" rx="120.5" ry="120.5"/>
			<ellipse transform="matrix(1 -7.726748e-03 7.726748e-03 1 -2.028 3.5785)" class="st5" cx="462.1" cy="264.2" rx="43" ry="43"/>
			
				<ellipse transform="matrix(1 -7.726513e-03 7.726513e-03 1 -2.1684 2.2796)" class="st6" cx="293.9" cy="281.8" rx="72.6" ry="72.6"/>
			
				<ellipse transform="matrix(1 -7.725825e-03 7.725825e-03 1 -2.4712 3.493)" class="st6" cx="450.9" cy="321.6" rx="72.6" ry="72.6"/>
			
				<ellipse transform="matrix(1 -7.726360e-03 7.726360e-03 1 -1.6234 2.5577)" class="st7" cx="330.2" cy="211.4" rx="31" ry="31"/>
			
				<linearGradient id="SVGID_1_" gradientUnits="userSpaceOnUse" x1="277.274" y1="412.4255" x2="348.2668" y2="412.4255" gradientTransform="matrix(1 -7.700000e-03 7.700000e-03 1 -40.4054 1.3037)">
				<stop  offset="0" style="stop-color:#FFCB05"/>
				<stop  offset="1" style="stop-color:#DDA027"/>
			</linearGradient>
			<circle class="st8" cx="275.5" cy="411.3" r="35.5"/>
			<g>
				<g>
					<path class="st1" d="M316.9,456.3c1.8-3.3,0.6-7.3-2.7-9.1c-3.2-1.8-7.3-0.6-9.1,2.7c-1.8,3.3-0.6,7.3,2.7,9.1
						C311.1,460.7,315.1,459.6,316.9,456.3z"/>
				</g>
				<g>
					<path class="st1" d="M323.2,452.6c-0.2,2.5,1.6,4.6,4.1,4.8c2.4,0.2,4.6-1.7,4.8-4.1c0.2-2.5-1.7-4.6-4.2-4.8
						C325.5,448.3,323.4,450.2,323.2,452.6z"/>
				</g>
			</g>
			
				<ellipse transform="matrix(1 -7.726748e-03 7.726748e-03 1 -2.8208 2.0834)" class="st9" cx="268.2" cy="366.1" rx="43" ry="43"/>
			
				<ellipse transform="matrix(1 -7.726748e-03 7.726748e-03 1 -2.6641 1.9993)" class="st5" cx="257.4" cy="345.8" rx="43" ry="43"/>
			
				<ellipse transform="matrix(1 -7.726748e-03 7.726748e-03 1 -2.0583 2.2682)" class="st10" cx="292.5" cy="267.5" rx="43" ry="43"/>
			
				<ellipse transform="matrix(1 -7.725281e-03 7.725281e-03 1 -1.6359 2.2763)" class="st11" cx="293.8" cy="212.9" rx="21" ry="21"/>
			<path class="st12" d="M458.6,213.1c-13.9-12-30.7-17.1-48.3-20.3c-26.5-4.8-53-5.1-78.9,3.3c-31.9,10.4-49.9,33.8-51.1,67.4
				c-0.7,18.3-4.7,35.2-15.5,50.3c-5.7,8-10.6,16.5-15.4,25.1c-3.1,5.7-0.3,10.8,6,12.4c10.5,2.7,12.1,4.9,11.5,15.6
				c-0.1,1.6-0.1,3.3-0.3,4.9c-0.6,4.8,0.5,8.8,6.1,10.5c-3.4,5.4-2.9,8.2,2,12.8c7,6.5,7,6.5,3,15.4c-5.4,12.2-2.7,21.4,9.6,27
				c6.3,2.9,13.6,3.7,20.5,5.1c3.4,0.6,6.9,0.1,10.4,0.3c10.3,0.5,14.9,4,17.3,14c1.1,4.6,1.6,15.2,2.2,23c10.1,1.8,14.1,3.9,31.1,3
				c17.2-1.6,26.6-2.7,44.1-5.2c24.6-4.2,40.4-9.8,56.5-18.6c-1.8-6.4-3.5-12.3-5.2-18.5c-4.2-15.1-8.5-30.3-6.2-46.2
				c1-6.7,3-13.6,5.7-19.8c6.8-15.1,14.2-29.9,21.4-44.8c6.5-13.5,8.4-27.9,7.9-42.6C492,257.7,481.1,232.6,458.6,213.1z"/>
			
				<ellipse transform="matrix(1 -7.725875e-03 7.725875e-03 1 -3.4688 3.4902)" class="st13" cx="450" cy="450.7" rx="14.5" ry="14.5"/>
			
				<ellipse transform="matrix(0.5409 -0.8411 0.8411 0.5409 -162.4543 543.9996)" class="st6" cx="417.1" cy="420.8" rx="24.1" ry="24.1"/>
			<g>
				<g>
					<path class="st12" d="M247.1,423.7c2.8-0.7,4.5-3.5,3.8-6.3c-0.7-2.8-3.5-4.5-6.3-3.8c-2.8,0.7-4.5,3.5-3.8,6.3
						C241.4,422.7,244.3,424.4,247.1,423.7z"/>
					<path class="st12" d="M274.7,411.8c2.8-0.7,4.5-3.5,3.8-6.3c-0.7-2.8-3.5-4.5-6.3-3.8c-2.8,0.7-4.5,3.5-3.8,6.3
						C269,410.8,271.9,412.5,274.7,411.8z"/>
					<path class="st12" d="M315.4,459.9"/>
				</g>
				<g>
					<path class="st12" d="M278.6,418.7c-1.3,1.1-1.6,3-0.5,4.4c1.1,1.4,3.1,1.6,4.4,0.5c1.4-1,1.6-3,0.5-4.4
						C281.9,417.8,279.9,417.6,278.6,418.7z"/>
					<path class="st12" d="M281.4,450.9c-1.8,1.4-2.1,4.1-0.7,5.9c1.4,1.8,4.1,2.1,5.9,0.7c1.8-1.4,2.1-4.1,0.7-5.9
						C285.8,449.9,283.2,449.5,281.4,450.9z"/>
				</g>
			</g>
			<path class="st14" d="M509.7,302.1c0.2,22.6-18,41-40.5,41.2c-22.6,0.2-41-18-41.1-40.5c-0.2-22.5,18-41,40.5-41.1
				C491.1,261.4,509.5,279.6,509.7,302.1z"/>
			<path class="st14" d="M371.9,225.7c0.1,14.1-11.2,25.6-25.3,25.7c-14.1,0.1-25.6-11.2-25.7-25.3c-0.1-14.1,11.2-25.6,25.3-25.7
				C360.3,200.3,371.8,211.7,371.9,225.7z"/>
			<path class="st14" d="M397.4,453.6c0.1,14.1-11.2,25.6-25.3,25.7c-14.1,0.1-25.6-11.2-25.7-25.3c-0.1-14.1,11.2-25.6,25.3-25.7
				C385.8,428.1,397.3,439.5,397.4,453.6z"/>
			
				<ellipse transform="matrix(1 -7.726153e-03 7.726153e-03 1 -3.1079 3.5907)" class="st7" cx="463.2" cy="404" rx="18.4" ry="18.4"/>
			<g class="st15">
				<path class="st12" d="M228.3,293.7c-2.2,1.8-2.7,5-0.9,7.3c1.8,2.3,5,2.7,7.3,0.9c2.3-1.8,2.7-5.1,0.9-7.3
					C233.8,292.3,230.6,291.9,228.3,293.7z"/>
				<path class="st12" d="M240.9,361.4c-4.1,3.2-4.8,9.1-1.6,13.2c3.2,4.1,9.1,4.8,13.2,1.6c4.1-3.2,4.8-9.1,1.6-13.2
					C250.9,358.9,245,358.2,240.9,361.4z"/>
			</g>
			<path class="st1" d="M253,401.2c-1.8,3.3-0.6,7.3,2.7,9.1c3.2,1.8,7.3,0.6,9.1-2.7c1.8-3.2,0.6-7.3-2.7-9.1
				C258.8,396.7,254.7,397.9,253,401.2z"/>
			<path class="st16" d="M420.2,416c-7.2,13.2-2.3,29.6,10.9,36.8c13.1,7.2,29.6,2.3,36.8-10.8c7.2-13.1,2.3-29.7-10.8-36.7
				C443.9,398,427.4,403,420.2,416z"/>
			<g class="st17">
				<path class="st1" d="M346.5,463.1c9.3-17.1,3-38.4-14.1-47.8c-17.1-9.4-38.3-3-47.8,14.1c-9.3,17.1-2.9,38.4,14.1,47.6
					C315.8,486.4,337.2,480.2,346.5,463.1z"/>
			</g>
			<g>
				<g>
					<path class="st1" d="M475.6,288.4c-3.5,0.5-6.1,3.8-5.5,7.3c0.5,3.5,3.7,6,7.3,5.5c3.6-0.5,6-3.7,5.5-7.3
						C482.4,290.5,479.2,288,475.6,288.4z"/>
					<path class="st1" d="M487.2,377.7c-4.7,0.6-8,5-7.4,9.7c0.7,4.7,5,8,9.8,7.3c4.7-0.7,7.9-5,7.3-9.7
						C496.2,380.3,491.9,377,487.2,377.7z"/>
					<path class="st1" d="M418.2,362.9c2.1-1.3,2.7-3.9,1.4-6c-1.3-2-4-2.6-6-1.4c-2,1.3-2.6,3.9-1.4,6
						C413.6,363.5,416.2,364.1,418.2,362.9z"/>
					<path class="st1" d="M478.5,338.8c3-1.9,3.9-5.9,2-8.9c-1.9-3-5.9-3.9-9-2c-3,1.9-3.9,5.9-2,8.9
						C471.5,339.8,475.5,340.8,478.5,338.8z"/>
				</g>
				<g>
					
						<linearGradient id="SVGID_2_" gradientUnits="userSpaceOnUse" x1="-614.0396" y1="245.9116" x2="-617.8259" y2="276.2019" gradientTransform="matrix(-1 0 0 1 -302.654 0)">
						<stop  offset="0" style="stop-color:#FFCB05"/>
						<stop  offset="1" style="stop-color:#DDA027"/>
					</linearGradient>
					<circle class="st18" cx="311.7" cy="248.7" r="14.8"/>
					<circle class="st13" cx="331.6" cy="223.3" r="11.9"/>
					<circle class="st1" cx="319.7" cy="277.1" r="9.9"/>
					<circle class="st19" cx="344.8" cy="256.6" r="15.9"/>
					
						<linearGradient id="SVGID_3_" gradientUnits="userSpaceOnUse" x1="-723.3367" y1="247.9825" x2="-727.1229" y2="293.4178" gradientTransform="matrix(-1 0 0 1 -302.654 0)">
						<stop  offset="0" style="stop-color:#FFCB05"/>
						<stop  offset="1" style="stop-color:#DDA027"/>
					</linearGradient>
					<circle class="st20" cx="421.3" cy="255.8" r="15.1"/>
					<circle class="st13" cx="463.5" cy="261.5" r="3.2"/>
					
						<linearGradient id="SVGID_4_" gradientUnits="userSpaceOnUse" x1="-719.8992" y1="231.6821" x2="-723.6854" y2="261.9711" gradientTransform="matrix(-1 0 0 1 -302.654 0)">
						<stop  offset="0" style="stop-color:#FFCB05"/>
						<stop  offset="1" style="stop-color:#DDA027"/>
					</linearGradient>
					<circle class="st21" cx="426" cy="302" r="3"/>
					<circle class="st19" cx="362.3" cy="268.6" r="3"/>
					
						<linearGradient id="SVGID_5_" gradientUnits="userSpaceOnUse" x1="-745.6371" y1="312.1834" x2="-735.0982" y2="312.1834" gradientTransform="matrix(-1 0 0 1 -302.654 0)">
						<stop  offset="0" style="stop-color:#F79334"/>
						<stop  offset="1" style="stop-color:#EC6F23"/>
					</linearGradient>
					<circle class="st22" cx="437.7" cy="312.2" r="5.3"/>
					
						<ellipse transform="matrix(1.528516e-02 -0.9999 0.9999 1.528516e-02 99.4245 651.1047)" class="st13" cx="380.3" cy="275.1" rx="3.6" ry="3.6"/>
					
						<linearGradient id="SVGID_6_" gradientUnits="userSpaceOnUse" x1="-744.7159" y1="320.9436" x2="-747.9167" y2="367.6227" gradientTransform="matrix(-1 0 0 1 -302.654 0)">
						<stop  offset="0" style="stop-color:#FFCB05"/>
						<stop  offset="1" style="stop-color:#DDA027"/>
					</linearGradient>
					<circle class="st23" cx="443.3" cy="339.7" r="15.3"/>
					<circle class="st13" cx="367.8" cy="222" r="18.8"/>
					
						<linearGradient id="SVGID_7_" gradientUnits="userSpaceOnUse" x1="-704.5595" y1="277.4507" x2="-704.5595" y2="305.3256" gradientTransform="matrix(-1 0 0 1 -302.654 0)">
						<stop  offset="0" style="stop-color:#F79334"/>
						<stop  offset="1" style="stop-color:#EC6F23"/>
					</linearGradient>
					<circle class="st24" cx="401.9" cy="290.7" r="16.8"/>
					<linearGradient id="SVGID_8_" gradientUnits="userSpaceOnUse" x1="331.7135" y1="284.215" x2="348.6871" y2="284.215">
						<stop  offset="0" style="stop-color:#FFCB05"/>
						<stop  offset="1" style="stop-color:#DDA027"/>
					</linearGradient>
					<circle class="st25" cx="340.2" cy="284.2" r="8.5"/>
					<circle class="st19" cx="418.3" cy="318.7" r="10.8"/>
					
						<linearGradient id="SVGID_9_" gradientUnits="userSpaceOnUse" x1="-766.7167" y1="308.8274" x2="-766.7167" y2="318.328" gradientTransform="matrix(-1 0 0 1 -302.654 0)">
						<stop  offset="0" style="stop-color:#FFCB05"/>
						<stop  offset="1" style="stop-color:#DDA027"/>
					</linearGradient>
					<circle class="st26" cx="464.1" cy="315.9" r="7.5"/>
					<circle class="st19" cx="365.5" cy="287.1" r="12.2"/>
					<ellipse class="st19" cx="451.5" cy="247" rx="12.2" ry="12.2"/>
					<circle class="st1" cx="377.2" cy="257.5" r="12.2"/>
					<circle class="st10" cx="406.9" cy="216.8" r="14.3"/>
					<circle class="st27" cx="392.8" cy="240.7" r="8.8"/>
					<circle class="st27" cx="450" cy="286.2" r="20.5"/>
					<circle class="st19" cx="397.1" cy="262.3" r="6.2"/>
					
						<linearGradient id="SVGID_10_" gradientUnits="userSpaceOnUse" x1="-736.047" y1="218.626" x2="-736.5632" y2="239.2742" gradientTransform="matrix(-1 0 0 1 -302.654 0)">
						<stop  offset="0" style="stop-color:#F79334"/>
						<stop  offset="1" style="stop-color:#EC6F23"/>
					</linearGradient>
					<circle class="st28" cx="433.6" cy="227.5" r="11"/>
				</g>
			</g>
		</g>
		<g id="UP">
			<g>
				<g class="st29">
					<g>
						<path class="st1" d="M314.1,529.3c-3.1-6.2-3.2-6.4-4.5-10.1c-2-6.7-2.1-7-2.8-10.9l-0.5-3.2c1.5-18.4,113.2-13.8,129.8,5.4
							c2.6,3,3.8,5.8,2.2,10.6c-1,2.4-2.4,5.5-3.6,7.8c-3.4,5.9-3.6,6.1-6,9.3c-1.5,1.8-3.4,4.2-5,5.8l-0.1-0.5
							c12.3-23.8-74.4-27.7-100.5-19.9c-6.8,2-9.6,4.4-8.5,7L314.1,529.3"/>
						<path class="st1" d="M423.9,543.7c0.1,0.2,0.1,0.3,0,0.4l-2.4,2.4l-1.4,1.3C422.2,545.8,423,544.7,423.9,543.7
							C423.8,543.6,423.9,543.6,423.9,543.7"/>
					</g>
				</g>
			</g>
			<path class="st1" d="M423.8,543.6c-3.2-4.5-39.9-8.6-69.4-2.7c-4.8,1-28.1,6.1-15.6,14.4c1.7,1,2.6,1.5,4,2.2
				c1.4,0.8,2.2,1.1,4.1,2c0.5,0.2,1,0.4,1.6,0.6c0.6,0.2,1.2,0.5,1.8,0.7c0.1,0.1,0.3,0.1,0.4,0.2c0.5,0.2,1,0.4,1.5,0.5
				c0.3,0.1,0.6,0.2,0.9,0.3c0.4,0.1,0.8,0.3,1.2,0.4c0.3,0.1,0.7,0.2,1,0.3c0.3,0.1,0.5,0.2,0.8,0.2c0.5,0.1,0.9,0.3,1.4,0.4
				c0.2,0,0.3,0.1,0.5,0.1c2.2,0.6,4.7,1.1,7.6,1.5c2.1,0.2,2.1,0.2,3.2,0.3c1.9,0.1,1.9,0.1,2.8,0.2c1.5,0,1.7,0.1,2.6,0.1
				c0.1,0,0.3,0,0.4,0c2.5,0.1,5.2,0.1,8.1,0c11.1-0.5,20.1-2.8,20-5.1c-0.1-2.3-9.2-3.6-20.4-3.1c-10.1,0.5-18.3,2.4-19.7,4.4
				c0,0-0.1,0-0.1,0c-3.4-0.4-6.3-0.8-8.8-1.3c-2.1-4.7,17.7-9.7,41.5-7.8c5.9,0.5,8.9,1.1,13.7,2.2c1.5,0.3,1.5,0.3,2.3,0l1.5-1
				c1-0.8,2.2-1.7,3.4-2.6c1.4-1,2.3-1.7,3.2-2.5h0c0.2-0.2,0.5-0.5,0.7-0.6c-1.1,0.9-2.4,1.9-3.6,2.9c1.3-1,2.6-2,3.6-2.9
				C422,546,422.2,545.7,423.8,543.6z"/>
			<path class="st1" d="M496.7,422.1c-3.1,1.9-6.5,3.6-10,5.2c-1.9,0.8-3.8,1.6-5.8,2.4c-3.7,1.4-7.7,2.6-11.6,3.7
				c-3,0.8-6,1.6-9,2.4c-6.7,1.6-13.5,2.9-20.4,4.1c-21,3.5-42.5,5.6-63.8,7.7c-3.8,0.4-7.6,0.7-11.3,1.1
				c-36.7,3.5-68.3,6.6-84.6,12.3c-27.9,9.9,9,25.3,25.9,29.7c2.7,0.7,4.9,1.3,7.3,1.8c2.4-2.7,24.4-5.9,49.4-8.2
				c68.3-6.3,120.8-11.5,148.8-75C510.1,411.5,501.8,419,496.7,422.1z"/>
			<g>
				<path class="st1" d="M355.8,170"/>
				<path class="st1" d="M459.3,201.2c0.1,0.1,0.2,0.2,0.3,0.3c-0.3-0.2-0.5-0.4-0.8-0.6c-23.3-13.1-43.6-17.8-89.1-24.6
					c-17-2.5-21.2-2.7-23.4-4.1c-2.1-1,4.3-2.6,12.5-2.9c-0.6,0-9.2,0.3-11.4,0.5c-2.2,0.2-4.3,0.4-6.5,0.6
					c-2.2,0.3-4.5,0.5-6.7,0.9c-2.4,0.4-4.7,0.8-7.1,1.2c-2.6,0.5-5.1,1.1-7.6,1.7c-6.8,1.8-24.9,6.7-9.4,12.2
					c9.1,3.2,28,5.9,54.1,9.5c63,8.9,83.1,14.2,104.3,22.9c0.7,0.3,1.5,0.7,2.2,1c16.9,7.8,23.4,15.7,26.2,19
					C490.1,228.7,480.2,216.4,459.3,201.2z M469.1,212.9c0-0.1,0-0.2-0.1-0.3C469.1,212.7,469.1,212.8,469.1,212.9z M469.3,216.3
					c-0.1,0.3-0.1,0.6-0.2,0.9C469.2,216.9,469.2,216.6,469.3,216.3z M469.4,214.5c0,0.2,0,0.4,0,0.6
					C469.4,214.9,469.4,214.7,469.4,214.5z"/>
			</g>
			<path class="st1" d="M498.3,238.7L498.3,238.7L498.3,238.7L498.3,238.7L498.3,238.7c-3.5-4.1-6.9-7.3-11-10.2
				C493.4,232.9,496.6,236.7,498.3,238.7c-6.4-9.5-15.7-21.2-35.3-35.6c8.4,6.6,11,11.6,8.6,16.7c0.6,0.3,1.4,0.6,2.1,0.9
				c5.2,2.4,9.3,4.8,12.6,7.1c-4-2.7-8.6-5.2-14.7-8C463,230.9,454,232,343.2,245.3c-113.1,13.6-119.2,31.9-120.3,35.4l0,0
				c-0.2,0.6-0.4,1.1-0.6,1.7c-0.2,0.5-0.4,1.1-0.6,1.7c-0.2,0.5-0.4,1.1-0.5,1.6c-0.2,0.5-0.3,1.1-0.5,1.6c-0.2,0.5-0.3,1-0.5,1.6
				c-0.2,0.5-0.3,1-0.4,1.5c-0.1,0.5-0.3,1-0.4,1.5c-0.1,0.5-0.3,1-0.4,1.5c-0.3,1-0.5,2-0.8,3.1c-0.2,1-0.5,2-0.7,3
				c-0.2,1-0.4,1.9-0.6,2.9c-0.2,1-0.4,1.9-0.5,2.9c-0.2,1-0.3,1.9-0.5,2.9c-0.2,0.9-0.3,1.9-0.4,2.9c-0.1,1-0.3,1.9-0.4,2.9
				c-0.1,1-0.2,1.9-0.3,2.9c-0.1,0.6-0.1,1.3-0.2,1.9c0,0.3-0.1,0.7-0.1,1c-0.1,1-0.2,2-0.2,3c-0.1,1-0.1,2-0.2,3.1
				c0,1-0.1,2.1-0.1,3.1c0,1.1,0,2.2,0,3.2c0,1.1,0,2.2,0,3.4c0,1.2,0.1,2.3,0.1,3.5c0.1,1.2,0.1,2.4,0.2,3.6
				c3.9-8.2,8.7-15.3,20.2-21.4c31.3-12.9,65.9-17.4,142.7-25.3C478.2,285.4,525.6,278.6,498.3,238.7z"/>
		</g>
	</g>
	<g id="Text">
		<g>
			<g>
				<g>
					<defs>
						
							<ellipse id="SVGID_11_" transform="matrix(0.9013 -0.4332 0.4332 0.9013 -222.525 296.0226)" cx="538.4" cy="636.3" rx="4.4" ry="4.4"/>
					</defs>
					<clipPath id="SVGID_12_">
						<use xlink:href="#SVGID_11_"  style="overflow:visible;"/>
					</clipPath>
					<polygon class="st30" points="538.2,641.3 543.4,638.7 543.4,641.3 					"/>
					<polygon class="st30" points="537.8,641.3 543.4,638.5 543.4,638.7 538.2,641.3 					"/>
					<polygon class="st31" points="537.4,641.3 543.4,638.3 543.4,638.5 537.8,641.3 					"/>
					<polygon class="st32" points="537,641.3 543.4,638.1 543.4,638.3 537.4,641.3 					"/>
					<polygon class="st33" points="536.5,641.3 543.4,637.9 543.4,638.1 537,641.3 					"/>
					<polygon class="st34" points="536.1,641.3 543.4,637.7 543.4,637.9 536.5,641.3 					"/>
					<polygon class="st34" points="535.7,641.3 543.4,637.5 543.4,637.7 536.1,641.3 					"/>
					<polygon class="st35" points="535.3,641.3 543.4,637.3 543.4,637.5 535.7,641.3 					"/>
					<polygon class="st36" points="534.9,641.3 543.4,637.1 543.4,637.3 535.3,641.3 					"/>
					<polygon class="st37" points="534.5,641.3 543.4,636.9 543.4,637.1 534.9,641.3 					"/>
					<polygon class="st37" points="534.1,641.3 543.4,636.7 543.4,636.9 534.5,641.3 					"/>
					<polygon class="st38" points="533.7,641.3 543.4,636.5 543.4,636.7 534.1,641.3 					"/>
					<polygon class="st39" points="533.7,641.3 533.6,641.2 543.4,636.3 543.4,636.5 533.7,641.3 					"/>
					<polygon class="st40" points="533.6,641.2 533.5,641.1 543.4,636.1 543.4,636.3 					"/>
					<polygon class="st41" points="533.5,641.1 533.4,640.9 543.4,635.9 543.4,636.1 					"/>
					<polygon class="st42" points="533.4,640.9 533.4,640.7 543.4,635.7 543.4,635.9 					"/>
					<polygon class="st43" points="533.4,640.7 533.3,640.7 533.3,640.5 543.4,635.5 543.4,635.7 					"/>
					<polygon class="st44" points="533.3,640.3 543.4,635.3 543.4,635.5 533.3,640.5 					"/>
					<polygon class="st44" points="533.3,640.1 543.4,635.1 543.4,635.3 533.3,640.3 					"/>
					<polygon class="st45" points="533.3,639.9 543.4,634.9 543.4,635.1 533.3,640.1 					"/>
					<polygon class="st46" points="533.3,639.7 543.4,634.7 543.4,634.9 533.3,639.9 					"/>
					<polygon class="st47" points="533.3,639.5 543.4,634.5 543.4,634.7 533.3,639.7 					"/>
					<polygon class="st47" points="533.3,639.3 543.4,634.3 543.4,634.5 533.3,639.5 					"/>
					<polygon class="st48" points="533.3,639.1 543.4,634.1 543.4,634.3 533.3,639.3 					"/>
					<polygon class="st49" points="533.3,638.9 543.4,633.9 543.4,634.1 533.3,639.1 					"/>
					<polygon class="st49" points="533.3,638.7 543.4,633.7 543.4,633.9 533.3,638.9 					"/>
					<polygon class="st50" points="533.3,638.5 543.4,633.5 543.4,633.7 533.3,638.7 					"/>
					<polygon class="st51" points="533.3,638.3 543.4,633.3 543.4,633.5 533.3,638.5 					"/>
					<polygon class="st52" points="533.3,638.1 543.4,633.1 543.4,633.3 533.3,638.3 					"/>
					<polygon class="st53" points="533.3,637.9 543.4,632.9 543.4,633.1 533.3,638.1 					"/>
					<polygon class="st54" points="533.3,637.7 543.4,632.7 543.4,632.9 533.3,637.9 					"/>
					<polygon class="st55" points="533.3,637.5 543.4,632.5 543.4,632.7 533.3,637.7 					"/>
					<polygon class="st56" points="533.3,637.3 543.4,632.3 543.4,632.5 533.3,637.5 					"/>
					<polygon class="st56" points="533.3,637.1 543.4,632.1 543.4,632.3 533.3,637.3 					"/>
					<polygon class="st57" points="533.3,636.9 543.3,631.9 543.4,632 543.4,632.1 533.3,637.1 					"/>
					<polygon class="st58" points="533.3,636.7 543.3,631.8 543.3,631.9 533.3,636.9 					"/>
					<polygon class="st59" points="533.3,636.5 543.2,631.6 543.3,631.8 533.3,636.7 					"/>
					<polygon class="st60" points="533.3,636.3 543.1,631.5 543.2,631.6 533.3,636.5 					"/>
					<polygon class="st61" points="533.3,636.1 543,631.3 543,631.3 543.1,631.5 533.3,636.3 					"/>
					<polygon class="st62" points="533.3,635.9 542.6,631.3 543,631.3 533.3,636.1 					"/>
					<polygon class="st63" points="533.3,635.7 542.2,631.3 542.6,631.3 533.3,635.9 					"/>
					<polygon class="st63" points="533.3,635.5 541.8,631.3 542.2,631.3 533.3,635.7 					"/>
					<polygon class="st64" points="533.3,635.3 541.4,631.3 541.8,631.3 533.3,635.5 					"/>
					<polygon class="st65" points="533.3,635.1 541,631.3 541.4,631.3 533.3,635.3 					"/>
					<polygon class="st66" points="533.3,634.9 540.6,631.3 541,631.3 533.3,635.1 					"/>
					<polygon class="st66" points="533.3,634.7 540.2,631.3 540.6,631.3 533.3,634.9 					"/>
					<polygon class="st67" points="533.3,634.5 539.8,631.3 540.2,631.3 533.3,634.7 					"/>
					<polygon class="st68" points="533.3,634.3 539.4,631.3 539.8,631.3 533.3,634.5 					"/>
					<polygon class="st69" points="533.3,634.1 539,631.3 539.4,631.3 533.3,634.3 					"/>
					<polygon class="st70" points="533.3,633.9 538.6,631.3 539,631.3 533.3,634.1 					"/>
					<polygon class="st70" points="538.6,631.3 533.3,633.9 533.3,631.3 					"/>
				</g>
			</g>
			<g class="st71">
				
					<ellipse transform="matrix(0.8947 -0.4466 0.4466 0.8947 -223.5014 301.273)" class="st72" cx="527.3" cy="624.7" rx="9" ry="9"/>
			</g>
			<g>
				
					<ellipse transform="matrix(0.8947 -0.4466 0.4466 0.8947 -282.0809 161.2352)" class="st10" cx="201" cy="679" rx="6.3" ry="6.3"/>
			</g>
		</g>
		<g>
			<g>
				<rect x="234" y="618.9" class="st1" width="11.4" height="9.6"/>
				<rect x="218.9" y="618.9" class="st1" width="11.3" height="9.6"/>
				<path class="st1" d="M304.5,642.9c-2.1-1.7-4.6-3-7.4-3.9c-2.9-0.8-5.9-1.3-9.2-1.3c-3.3,0-6.4,0.4-9.2,1.3
					c-2.8,0.9-5.2,2.2-7.3,4c-2,1.8-3.7,3.9-4.8,6.5c-1.2,2.6-1.8,5.5-1.8,8.9c0,1.7,0.3,3.3,1,4.8c0.7,1.5,1.6,2.9,2.8,4.3v0.3h-8
					h-0.1h-1.4c-1.1,0-2-0.1-2.7-0.3c-0.7-0.2-1.3-0.6-1.7-1.2c-0.4-0.6-0.8-1.3-0.9-2.3c-0.2-1-0.3-2.2-0.3-3.7v-21.2h-20.6
					c-3.6,0-6.8,0.5-9.5,1.4c-2.7,1-4.9,2.3-6.7,4c-1.8,1.7-3.1,3.8-4,6.1c-0.9,2.4-1.3,5-1.3,7.9c0,2.9,0.5,5.4,1.6,7.7
					c1.1,2.2,2.5,4.1,4.4,5.6c1.9,1.5,4,2.7,6.5,3.5c2.5,0.8,5.1,1.2,7.9,1.2c2.7,0,5.1-0.6,7.4-1.8c2.2-1.2,4-2.7,5.3-4.5
					c1,2.7,2.5,4.8,4.6,6.4c2.1,1.6,4.6,2.4,7.4,2.4h4h0.1h27.3c3.1,0,6.1-0.4,9-1.3c2.8-0.8,5.3-2.1,7.4-3.8
					c2.1-1.7,3.8-3.9,5.1-6.4c1.3-2.6,1.9-5.6,1.9-9.1c0-3.5-0.6-6.5-1.8-9.1C308.3,646.8,306.6,644.6,304.5,642.9z M239.9,657.9
					c0,2.9-0.7,4.9-2.2,6.1c-1.5,1.2-3.2,1.8-5.2,1.8c-2.5,0-4.4-0.6-5.6-1.8c-1.2-1.2-1.8-3-1.8-5.4c0-2.6,0.6-4.7,1.9-6.3
					c1.2-1.5,3.2-2.3,5.9-2.3h7V657.9z M294.4,665.5c-1.4,1.9-3.6,2.9-6.5,2.9c-3,0-5.1-1-6.5-2.9c-1.4-1.9-2.1-4.3-2.1-7.1
					c0-2.8,0.7-5.2,2.1-7.2c1.4-2,3.5-2.9,6.5-2.9c1.5,0,2.7,0.3,3.8,0.8c1.1,0.5,2,1.2,2.7,2.1c0.7,0.9,1.2,2,1.6,3.2
					c0.3,1.2,0.5,2.6,0.5,4C296.5,661.2,295.8,663.6,294.4,665.5z"/>
				<path class="st1" d="M515,649.3c-1.2-2.6-2.9-4.7-5-6.5c-2.1-1.7-4.6-3-7.4-3.9c-2.9-0.8-5.9-1.3-9.2-1.3
					c-3.3,0-6.4,0.4-9.2,1.3c-2.8,0.9-5.2,2.2-7.3,4c-2,1.8-3.7,3.9-4.8,6.5c-1.2,2.6-1.8,5.5-1.8,8.9c0,1.7,0.3,3.3,1,4.8
					c0.7,1.5,1.6,2.9,2.8,4.3v0.3h-8h-0.1h-9.8v-0.4c1.9-2,3.2-3.9,3.9-5.8c0.7-1.9,1.1-3.9,1.1-6.1c0-2.9-0.4-5.3-1.3-7.3
					c-0.8-1.9-2-3.5-3.6-4.7c-1.5-1.2-3.4-2-5.6-2.5c-2.2-0.5-4.6-0.7-7.2-0.7h-35.4v1.5c1.5,1.5,2.8,3.4,3.8,5.7
					c1,2.3,2,4.7,2.9,7.2c0.9,2.5,1.9,4.9,2.9,7.2c1,2.3,2.2,4.1,3.6,5.5v0.3h-17.3h0h-3.6c-0.7,0-1.5-0.1-2.2-0.4
					c-0.7-0.3-1.4-0.6-1.9-1.2c-0.6-0.5-1-1.2-1.3-2.1c-0.3-0.9-0.5-2-0.5-3.3v-42h-14.3v43.7c0,1.1-0.2,2-0.5,2.7
					c-0.3,0.7-0.7,1.2-1.2,1.6c-0.5,0.4-1,0.6-1.5,0.8c-0.5,0.1-1,0.2-1.5,0.2h-5.5h0h-8.2c0.1-1,0.1-1.7,0.1-2.2c0-0.5,0-1.3,0-2.4
					c0-4.2-0.4-7.9-1.2-11.1c-0.8-3.2-2-5.8-3.7-7.9c-1.7-2.1-4-3.7-6.8-4.8c-2.8-1.1-6.2-1.6-10.3-1.6c-4,0-7.5,0.6-10.3,1.8
					c-2.8,1.2-5.1,2.8-6.9,4.8c-1.8,2-3,4.3-3.8,7c-0.8,2.7-1.2,5.5-1.2,8.5c0,3,0.5,5.7,1.5,8c1,2.4,2.4,4.4,4.1,6.1
					s3.9,2.9,6.3,3.8c2.4,0.9,5,1.3,7.8,1.3h9.3c-0.6,3.8-2,6.4-4.2,7.9c-2.2,1.4-5.4,2.1-9.3,2.1c-1,0-2.1-0.1-3.3-0.4
					c-1.3-0.3-2.5-0.6-3.6-1.1v10.1c0.7,0.2,1.5,0.4,2.4,0.7c0.7,0.2,1.6,0.3,2.6,0.5c1,0.1,2.1,0.2,3.2,0.2c7.8,0,13.8-1.7,18.1-5
					c4.3-3.4,7-8.4,8.2-15h9.3h0h5.5c0.9,0,1.9-0.1,3.1-0.3c1.2-0.2,2.4-0.5,3.7-0.9c1.3-0.4,2.5-1,3.8-1.8c1.3-0.7,2.4-1.7,3.4-2.9
					c0.6,0.7,1.2,1.4,2.1,2.1c0.8,0.7,1.7,1.3,2.6,1.9c1,0.5,2,1,3,1.3c1.1,0.3,2.1,0.5,3.2,0.5h3.6h0h61.9h0.1h27.3
					c3.1,0,6.1-0.4,9-1.3c2.8-0.8,5.3-2.1,7.4-3.8c2.1-1.7,3.8-3.9,5.1-6.4c1.3-2.6,1.9-5.6,1.9-9.1
					C516.8,654.9,516.2,651.9,515,649.3z M347.9,667.8h-7.7c-1.6,0-2.9-0.2-3.9-0.5c-1-0.4-1.8-0.9-2.3-1.6
					c-0.6-0.7-0.9-1.5-1.1-2.6c-0.2-1-0.3-2.2-0.3-3.6c0-1.4,0.1-2.8,0.4-4.1c0.3-1.3,0.7-2.6,1.3-3.6c0.6-1.1,1.4-1.9,2.4-2.6
					c1-0.6,2.2-1,3.7-1c1.6,0,2.8,0.3,3.8,1c1,0.7,1.8,1.6,2.4,2.9c0.6,1.3,1,2.8,1.2,4.6c0.2,1.8,0.3,3.8,0.3,6.1V667.8z
					 M446.7,659.8c-0.4,1.6-1.1,3-1.9,4.2c-0.8,1.3-1.9,2.3-3.2,3.1c-1.3,0.8-2.8,1.2-4.5,1.2c-1.1,0-2.1-0.4-2.9-1.1
					c-0.8-0.7-1.5-1.6-2.1-2.7c-0.6-1.1-1.1-2.3-1.5-3.6c-0.4-1.3-0.8-2.6-1.3-3.9c-0.4-1.3-0.8-2.5-1.3-3.6
					c-0.4-1.1-0.9-1.9-1.6-2.5h14.8c1.9,0,3.3,0.4,4.4,1.1c1.1,0.7,1.6,1.8,1.6,3.1C447.4,656.7,447.2,658.2,446.7,659.8z
					 M499.9,665.5c-1.4,1.9-3.6,2.9-6.5,2.9c-3,0-5.1-1-6.5-2.9c-1.4-1.9-2.1-4.3-2.1-7.1c0-2.8,0.7-5.2,2.1-7.2
					c1.4-2,3.5-2.9,6.5-2.9c1.5,0,2.7,0.3,3.8,0.8c1.1,0.5,2,1.2,2.7,2.1c0.7,0.9,1.2,2,1.6,3.2c0.3,1.2,0.5,2.6,0.5,4
					C502,661.2,501.3,663.6,499.9,665.5z"/>
			</g>
			<g>
				<path class="st73" d="M449.9,602.9c-0.5-0.5-1.2-0.9-1.9-1.1c-0.7-0.2-1.5-0.4-2.4-0.4s-1.6,0.1-2.4,0.4
					c-0.7,0.3-1.3,0.6-1.9,1.1c-0.5,0.5-0.9,1.1-1.2,1.8c-0.3,0.7-0.4,1.6-0.4,2.5c0,0.3,0.1,0.6,0.2,1c0.1,0.3,0.2,0.7,0.4,1
					c0.2,0.3,0.3,0.6,0.5,0.9c0.2,0.3,0.3,0.5,0.5,0.6c-1.4,0.2-2.4,0.7-3,1.6c-0.6,0.8-1,1.9-1,3.2v3.3h2.7v-3.3
					c0-0.3,0-0.6,0.1-0.9c0.1-0.3,0.2-0.5,0.4-0.8c0.2-0.2,0.4-0.4,0.8-0.5c0.3-0.1,0.7-0.2,1.2-0.2h3.1c0.9,0,1.7-0.1,2.4-0.4
					c0.7-0.2,1.3-0.6,1.9-1.1c0.5-0.5,0.9-1.1,1.2-1.8c0.3-0.7,0.4-1.6,0.4-2.6s-0.1-1.8-0.4-2.6C450.8,604,450.4,603.4,449.9,602.9
					z M448,609.8c-0.5,0.6-1.3,0.9-2.3,0.9c-1,0-1.8-0.3-2.3-0.9c-0.5-0.6-0.8-1.5-0.8-2.5c0-1,0.3-1.9,0.8-2.5c0.5-0.6,1.3-1,2.3-1
					c1,0,1.8,0.3,2.3,1c0.5,0.6,0.8,1.5,0.8,2.5C448.8,608.3,448.5,609.2,448,609.8z"/>
				<rect x="467.8" y="615.4" class="st73" width="2.7" height="2.8"/>
				<rect x="471.8" y="615.4" class="st73" width="2.7" height="2.8"/>
				<path class="st73" d="M472,610.7h-4.4l0,0c0,0,0,0,0,0h-3c0-0.6,0.1-1.3,0.1-2.1c0-1.1-0.1-2.1-0.3-3c-0.2-0.9-0.5-1.6-0.9-2.2
					c-0.4-0.6-1-1.1-1.7-1.4c-0.7-0.3-1.6-0.5-2.7-0.5c-1.1,0-2,0.2-2.7,0.5c-0.7,0.3-1.3,0.8-1.7,1.4c-0.4,0.6-0.7,1.2-0.9,1.9
					c-0.2,0.7-0.3,1.5-0.3,2.3c0,0.8,0.1,1.6,0.4,2.3c0.3,0.7,0.7,1.3,1.1,1.8c0.5,0.5,1.1,0.9,1.8,1.1c0.7,0.3,1.4,0.4,2.3,0.4h2.4
					c-0.1,0.7-0.3,1.2-0.6,1.6c-0.2,0.4-0.5,0.8-0.9,1c-0.4,0.3-0.8,0.4-1.2,0.5c-0.5,0.1-1,0.1-1.6,0.1c-0.6,0-1.3-0.1-1.8-0.4v2.3
					c0.2,0.1,0.4,0.1,0.6,0.2c0.2,0,0.4,0.1,0.7,0.1c0.3,0,0.6,0,0.9,0c1,0,1.9-0.1,2.7-0.3c0.8-0.2,1.4-0.5,2-1
					c0.5-0.5,1-1,1.3-1.7c0.3-0.7,0.6-1.6,0.8-2.6h3.2c0,0,0,0,0,0h0h7.1V603H472V610.7z M461.9,610.7h-2.7c-1,0-1.7-0.3-2.2-0.8
					c-0.4-0.5-0.6-1.3-0.6-2.3c0-0.4,0-0.9,0.1-1.3s0.3-0.8,0.5-1.2c0.2-0.3,0.5-0.6,0.9-0.8c0.4-0.2,0.8-0.3,1.4-0.3s1,0.1,1.3,0.3
					c0.3,0.2,0.6,0.5,0.8,0.9c0.2,0.4,0.3,0.9,0.4,1.4c0.1,0.6,0.1,1.2,0.1,2C462,609.3,462,610,461.9,610.7z"/>
				<path class="st73" d="M514.9,605.3c-0.2-0.8-0.6-1.4-1-1.9c-0.5-0.5-1.1-0.9-1.9-1.1c-0.8-0.3-1.7-0.4-2.8-0.4h-4l5.6-5.7h-3.3
					l-5.7,5.7v2.4h7.5c0.9,0,1.7,0.3,2.2,0.9c0.6,0.6,0.9,1.5,0.9,2.7v2.8h-11.6c0,0,0,0,0,0l0,0H500c-0.4,0-0.7,0-1-0.1
					c-0.3-0.1-0.6-0.2-0.8-0.3c-0.2-0.2-0.4-0.4-0.5-0.7c-0.1-0.3-0.2-0.6-0.2-1.1v-12.3h-2.7v12.5c0,1.4-0.1,2.6-0.3,3.6
					c-0.2,1-0.5,1.8-1,2.4c-0.4,0.6-1,1-1.6,1.3c-0.6,0.3-1.4,0.4-2.2,0.4c-0.8,0-1.6-0.1-2.2-0.4c-0.6-0.3-1.1-0.7-1.6-1.3
					c-0.4-0.6-0.7-1.4-0.9-2.4c-0.2-1-0.3-2.2-0.3-3.6h-2.5c0,1.5,0.1,2.9,0.3,4.1c0.2,1.2,0.5,2.3,1.1,3.2c0.5,0.9,1.3,1.6,2.2,2.1
					c1,0.5,2.2,0.7,3.8,0.7c1.3,0,2.5-0.2,3.4-0.5c0.9-0.3,1.7-0.8,2.3-1.4c0.6-0.6,1.1-1.4,1.4-2.3c0.3-0.9,0.5-2,0.7-3.2h0.1
					c0,0.3,0.2,0.5,0.4,0.7c0.2,0.2,0.4,0.4,0.7,0.6c0.2,0.2,0.5,0.3,0.8,0.4c0.3,0.1,0.5,0.1,0.8,0.1h0.8h0c0,0,0,0,0,0h14.4v-5.2
					C515.2,606.9,515.1,606.1,514.9,605.3z"/>
			</g>
		</g>
	</g>
</g>
</svg>
